
<svg xmlns="http://www.w3.org/2000/svg" data-name="Layer 1" viewBox="0 0 96 120" x="0px" y="0px"><title>Weather</title><path d="M74.85,29.74a12.89,12.89,0,0,0-23.46-7.4,13.57,13.57,0,0,0-18.91,7.93,13.55,13.55,0,0,0,.89,26.86,2.14,2.14,0,0,0,2.72-2.06v0a2.14,2.14,0,0,0-2-2.13,9.28,9.28,0,0,1,.18-18.52,2.14,2.14,0,0,0,2-1.72,9.29,9.29,0,0,1,18.24.2,2.14,2.14,0,0,0,2.57,1.71A9.28,9.28,0,1,1,59.72,52.9h0l-.23,0-.18,0-.2.08-.18.08-.17.11-.17.12-.14.13-.16.17,0,0L46,69.09a2.14,2.14,0,1,0,3.35,2.66L61,57.06A13.54,13.54,0,0,0,71.57,38.32,12.78,12.78,0,0,0,74.85,29.74Zm-5.73,4.8a13.52,13.52,0,0,0-10-4.46q-.44,0-.88,0a13.51,13.51,0,0,0-3.32-5.29,8.61,8.61,0,0,1,15.69,4.92A8.55,8.55,0,0,1,69.12,34.54Z"/><path d="M56.32,47.05a2.14,2.14,0,0,0-3,.35L36.56,68.54a2.14,2.14,0,1,0,3.35,2.66L56.67,50.05A2.14,2.14,0,0,0,56.32,47.05Z"/><path d="M33.81,63.32a2.14,2.14,0,0,0,3-.35L49,47.62A2.14,2.14,0,1,0,45.63,45L33.46,60.31A2.14,2.14,0,0,0,33.81,63.32Z"/><path d="M32.15,65.45a2.14,2.14,0,0,0-3,.35L27,68.54a2.14,2.14,0,1,0,3.35,2.66l2.18-2.74A2.14,2.14,0,0,0,32.15,65.45Z"/><path d="M36.15,72.6a2.14,2.14,0,0,0-3,.35L31,75.69a2.14,2.14,0,1,0,3.35,2.66l2.18-2.74A2.14,2.14,0,0,0,36.15,72.6Z"/></svg>